<?xml version="1.0" encoding="utf-8"?>
<!-- Generator: Adobe Illustrator 16.0.0, SVG Export Plug-In . SVG Version: 6.00 Build 0)  -->
<!DOCTYPE svg PUBLIC "-//W3C//DTD SVG 1.1//EN" "http://www.w3.org/Graphics/SVG/1.1/DTD/svg11.dtd">
<svg version="1.1" id="Layer_1" xmlns="http://www.w3.org/2000/svg" xmlns:xlink="http://www.w3.org/1999/xlink" x="0px" y="0px"
	 width="194.685px" height="171.005px" viewBox="0 0 194.685 171.005" enable-background="new 0 0 194.685 171.005"
	 xml:space="preserve">
<path fill="#EC2227" d="M97.225,29.897c4.077-4.53,7.701-9.06,11.777-13.59c7.701-8.154,18.121-13.59,28.992-15.402
	c19.932-4.077,40.317,5.889,48.924,24.462c9.967,19.479,10.42,42.582,0.906,62.06c-6.342,13.591-14.949,25.821-25.367,36.24
	c-18.574,18.573-39.864,34.428-63.42,46.659c-0.906,0.905-2.265,0.905-3.625,0c-19.026-9.967-36.693-22.197-53-36.693
	c-12.684-10.872-23.103-23.556-31.71-37.599C1.189,80.18-1.982,61.607,1.189,43.487c1.812-11.778,7.248-22.65,15.402-30.804
	C26.104,3.17,39.241-1.36,52.378,0.452c14.043,1.359,26.727,8.154,35.787,19.026C91.789,23.102,94.507,26.726,97.225,29.897z"/>
<path fill="#FFFFFF" d="M79.558,69.761c0,0,0-0.906,0.906-2.718c0.906-1.812,1.359-3.624,2.265-6.342
	c0.906-2.718,2.265-4.983,3.624-7.248c1.359-2.265,2.718-4.53,4.53-6.342c1.359-1.359,3.171-2.265,4.983-2.718
	c7.248,0,10.873,9.513,10.873,28.992c0,3.624,0,6.795-0.453,10.419c-0.453,3.624-0.453,6.342-0.453,8.154l-1.359,4.077
	c0,0,0.453-1.359,0.906-3.624s1.359-5.436,2.718-9.06c1.358-3.624,2.718-7.248,4.077-10.419c1.359-3.171,3.171-6.342,5.436-9.06
	c1.359-2.265,4.077-3.624,6.342-3.624c6.342,0,9.514,5.889,9.514,17.667c0,4.077-0.453,9.966-1.359,18.12
	s-1.359,13.137-1.359,15.854c0,4.53,0.906,6.795,2.719,6.795l0,0c1.812-0.452,3.623-1.358,4.982-2.718
	c1.813-1.812,2.719-3.624,3.624-5.436c0.906-1.813,1.812-4.077,2.718-6.342c0.453-1.813,1.359-3.624,1.359-5.437l0.453-2.265
	c0-0.453,0.453-0.906,1.359-0.906s2.265,0.453,2.265,1.359c-0.453,2.718-0.906,5.436-1.358,8.153
	c-0.906,2.719-1.813,5.437-3.172,8.154s-3.624,4.983-5.889,6.795c-2.719,1.813-5.436,2.718-8.607,2.718
	c-6.342,0-9.06-5.889-9.06-17.667c0-6.342,0.453-12.23,1.358-18.572c0.906-8.154,1.359-13.137,1.359-15.402
	c0-3.171-0.453-4.53-1.813-4.53c-2.264,0-4.982,4.077-8.153,11.778c-2.718,7.701-5.437,15.402-7.248,23.103l-2.265,11.778
	c0,1.359-1.359,2.265-3.624,2.265c-1.812,0-3.171-0.452-4.53-1.358c-1.359-0.453-2.265-1.813-2.265-3.171v-1.359
	c0-1.812,0.453-8.606,0.906-19.479s0.906-19.479,0.906-25.368c0-9.966-0.906-14.949-2.718-14.949s-3.624,2.718-5.889,7.701
	c-2.265,4.53-3.624,9.513-4.983,14.496c-1.812,9.06-4.53,26.273-7.701,50.735c0,1.813-1.359,2.719-3.624,2.719
	c-1.359,0-2.265-0.453-3.624-0.906c-0.906-0.453-1.359-1.813-1.359-2.718c0-0.453,0-0.906,0.453-1.359
	c0.453-5.436,0.906-13.137,1.812-22.65c0.906-9.513,1.359-16.308,1.359-19.479v-2.265c0-3.624-0.906-6.795-3.171-9.966
	c-1.359-1.812-3.171-3.171-5.436-3.171c-4.077,0.453-7.701,2.718-9.966,5.889c-2.718,3.624-4.53,8.154-4.53,12.684
	c0,2.718,0.906,5.437,3.171,7.701c1.359,1.812,3.624,2.718,5.889,3.171l0,0c0.453,0,0.453,0,0.453,0.453s0,0.906-0.453,0.906h-0.906
	c-3.171,0-5.889-1.359-7.701-3.624c-2.265-2.266-3.624-5.889-3.171-9.06c0-6.795,2.718-13.137,8.154-17.667
	c4.077-4.077,9.966-6.795,15.855-7.248c2.265,0,4.53,0.906,6.342,2.718c1.812,1.359,2.718,3.624,3.624,5.436
	C79.105,66.137,79.105,67.949,79.558,69.761z"/>
<g>
</g>
<g>
</g>
<g>
</g>
<g>
</g>
<g>
</g>
<g>
</g>
</svg>
