<?xml version="1.0" encoding="utf-8"?>
<!-- Generator: Adobe Illustrator 25.3.1, SVG Export Plug-In . SVG Version: 6.00 Build 0)  -->
<svg version="1.1" id="Layer_1" xmlns="http://www.w3.org/2000/svg" xmlns:xlink="http://www.w3.org/1999/xlink" x="0px" y="0px"
	 viewBox="0 0 135.1 37.8" style="enable-background:new 0 0 135.1 37.8;" xml:space="preserve">
<style type="text/css">
	.st0{fill:#ED1C24;}
	.st1{fill:#FFFFFF;}
</style>
<path class="st0" d="M21.4,6.6c0.9-1,1.7-2,2.6-3c1.7-1.8,4-3,6.4-3.4c4.4-0.9,8.9,1.3,10.8,5.4c2.2,4.3,2.3,9.4,0.2,13.7
	c-1.4,3-3.3,5.7-5.6,8c-4.1,4.1-8.8,7.6-14,10.3c-0.2,0.2-0.5,0.2-0.8,0c-4.2-2.2-8.1-4.9-11.7-8.1c-2.8-2.4-5.1-5.2-7-8.3
	c-2.1-3.5-2.8-7.6-2.1-11.6c0.4-2.6,1.6-5,3.4-6.9c2.1-2.1,5-3.1,7.9-2.7c3.1,0.3,5.9,1.8,7.9,4.2C20.2,5.1,20.8,5.9,21.4,6.6z"/>
<g>
	<path class="st1" d="M17.5,15.4c0,0,0-0.2,0.2-0.6s0.3-0.8,0.5-1.4c0.2-0.5,0.5-1.1,0.8-1.6s0.6-1,1-1.4c0.3-0.3,0.7-0.5,1.1-0.6
		c1.6,0,2.4,2.1,2.4,6.4c0,0.8,0,1.5-0.1,2.3s-0.1,1.4-0.1,1.8L23,21.2c0,0,0.1-0.3,0.2-0.8s0.3-1.2,0.6-2c0.3-0.8,0.6-1.6,0.9-2.3
		c0.3-0.7,0.7-1.4,1.2-2c0.3-0.5,0.9-0.8,1.4-0.8c1.4,0,2.1,1.3,2.1,3.9c0,0.9-0.1,2.2-0.3,4s-0.3,2.9-0.3,3.5c0,1,0.2,1.5,0.6,1.5
		l0,0c0.4-0.1,0.8-0.3,1.1-0.6c0.4-0.4,0.6-0.8,0.8-1.2c0.2-0.4,0.4-0.9,0.5-1.4c0.1-0.4,0.3-0.8,0.3-1.2l0.1-0.5
		c0-0.1,0.1-0.2,0.3-0.2s0.5,0.1,0.5,0.3c-0.1,0.6-0.2,1.2-0.3,1.8c-0.2,0.6-0.4,1.3-0.8,1.8c-0.3,0.6-0.8,1.1-1.3,1.5
		c-0.6,0.4-1.2,0.6-1.9,0.6c-1.4,0-2-1.3-2-3.9c0-1.4,0.1-2.7,0.3-4.1c0.2-1.8,0.3-2.9,0.3-3.4c0-0.7-0.1-1-0.4-1
		c-0.5,0-1.1,0.9-1.8,2.6c-0.6,1.7-1.2,3.4-1.6,5.1L22.9,25c0,0.3-0.3,0.5-0.8,0.5c-0.4,0-0.7-0.1-1-0.3c-0.3-0.1-0.5-0.4-0.5-0.7
		v-0.3c0-0.4,0.1-1.9,0.2-4.3s0.2-4.3,0.2-5.6c0-2.2-0.2-3.3-0.6-3.3s-0.8,0.6-1.3,1.7c-0.5,1-0.8,2.1-1.1,3.2
		c-0.4,2-1,5.7-1.7,11.2c0,0.4-0.3,0.6-0.8,0.6c-0.3,0-0.5-0.1-0.8-0.2c-0.2-0.1-0.3-0.4-0.3-0.6c0-0.1,0-0.2,0.1-0.3
		c0.1-1.2,0.2-2.9,0.4-5s0.3-3.6,0.3-4.3v-0.5c0-0.8-0.2-1.5-0.6-2.2c-0.3-0.4-0.8-0.7-1.3-0.7c-0.9,0.1-1.7,0.6-2.2,1.3
		C10.8,16,10.4,17,10.4,18c0,0.6,0.2,1.2,0.7,1.7c0.3,0.4,0.8,0.6,1.3,0.7l0,0c0.1,0,0.1,0,0.1,0.1s0,0.2-0.1,0.2h-0.2
		c-0.7,0-1.3-0.3-1.7-0.8c-0.5-0.5-0.8-1.3-0.7-2c0-1.5,0.7-2.9,1.8-3.8c0.9-1,2.2-1.5,3.5-1.6c0.5,0,1.1,0.2,1.4,0.6
		c0.4,0.3,0.6,0.8,0.8,1.2C17.4,14.6,17.5,15,17.5,15.4z"/>
</g>
<g>
	<path d="M51.1,26.3c-0.3-0.4-0.5-1-0.4-1.5c0-0.6,0.1-1.3,0.2-1.9c0.1-0.8,0.3-1.9,0.5-3.2c0.4-2.5,0.8-4.7,1-6.5
		c0.1-1,0.2-1.9,0.2-2.9c0-0.7-0.3-1.1-0.8-1.1c-0.6,0.1-1.1,0.3-1.5,0.6c-0.7,0.6-1.4,1.2-1.9,2c-0.2,0.3-0.4,0.4-0.7,0.4
		c-0.2,0-0.5-0.1-0.6-0.3c-0.2-0.2-0.3-0.5-0.2-0.7c0-0.3,0.1-0.5,0.2-0.8c0.1-0.3,0.3-0.6,0.5-0.9c0.7-1,1.5-1.8,2.5-2.5
		c0.8-0.6,1.8-0.9,2.8-0.9c0.8,0,1.5,0.3,2,0.8c0.5,0.7,0.8,1.6,0.7,2.4c0,0.5,0,1-0.1,1.5c-0.1,0.6-0.2,1.1-0.2,1.4
		s-0.1,0.6-0.2,0.8c0.6-2,1.7-3.9,3.1-5.4c1-1,2.3-1.5,3.7-1.6c0.9,0,1.9,0.4,2.5,1.1c0.7,0.9,1,2,0.9,3.1c0,0.7-0.1,1.3-0.2,2
		c0.5-1.8,1.5-3.4,2.8-4.7c1-0.9,2.3-1.4,3.7-1.4c1-0.1,1.9,0.3,2.6,1.1c0.6,0.9,1,1.9,0.9,3c0,0.9-0.1,1.7-0.3,2.6l-1.5,6.9
		c-0.1,0.7-0.2,1.3-0.2,2c0,0.5,0.1,1.1,0.5,1.5c0.3,0.3,0.8,0.5,1.3,0.5c0.6,0,1.1-0.2,1.6-0.5c0.7-0.5,1.3-1.1,1.8-1.8
		c0.2-0.2,0.4-0.3,0.7-0.3c0.2,0,0.4,0.1,0.5,0.3c0.1,0.2,0.2,0.5,0.2,0.8c0,0.5-0.1,1.1-0.5,1.5c-0.7,0.9-1.5,1.6-2.5,2.2
		c-0.8,0.5-1.7,0.7-2.6,0.7c-1.2,0.1-2.3-0.4-3.2-1.2c-0.8-0.9-1.2-2.1-1.2-3.2c0.1-1.4,0.3-2.8,0.6-4.1l1-4.4l0.2-0.8
		c0.1-0.4,0.1-0.7,0.2-1c0-0.3,0.1-0.7,0.1-1c0-0.4-0.1-0.9-0.3-1.3c-0.2-0.3-0.6-0.4-0.9-0.4c-1,0.1-1.8,0.6-2.4,1.4
		c-1.1,1.4-1.9,3.1-2.3,4.8c-0.9,2.8-1.5,5.8-1.8,8.7c0,0.7-0.2,1.3-0.6,1.9c-0.4,0.4-0.9,0.5-1.4,0.5c-0.4,0-0.9-0.1-1.2-0.4
		c-0.3-0.4-0.4-0.9-0.4-1.4c0-0.9,0.1-1.7,0.3-2.6c0.2-1.1,0.4-2.3,0.7-3.8c0.5-2.5,0.9-5,1.1-7.5c0-0.5-0.1-0.9-0.4-1.3
		c-0.3-0.3-0.6-0.4-1-0.4c-1,0.1-1.8,0.6-2.4,1.3c-1.1,1.4-1.9,3-2.4,4.7c-1,3-1.6,6.1-2,9.2c0,0.6-0.2,1.2-0.5,1.7
		c-0.3,0.4-0.8,0.5-1.3,0.5C51.9,26.8,51.5,26.6,51.1,26.3z"/>
	<path d="M78.1,25.6c-0.6-0.8-0.9-1.8-0.9-2.8c0-1.3,0.3-2.5,0.9-3.6s1.4-2,2.4-2.8c0.9-0.7,2-1,3.1-1c0.3,0,0.5,0,0.7,0.2
		s0.3,0.5,0.3,0.7c0.4-0.1,0.7-0.1,1.1-0.1c0.8,0,1.2,0.3,1.2,0.8c-0.1,0.8-0.2,1.6-0.4,2.4c-0.3,1.3-0.5,2.5-0.6,3.8
		c0,0.2,0.1,0.4,0.2,0.6c0.1,0.1,0.3,0.2,0.5,0.2c0.4-0.1,0.8-0.3,1.1-0.6c0.6-0.6,1.2-1.2,1.8-1.9c0.2-0.2,0.4-0.3,0.7-0.3
		c0.2,0,0.4,0.1,0.5,0.3c0.1,0.2,0.2,0.5,0.2,0.8c0,0.5-0.1,1-0.4,1.4c-0.6,0.8-1.3,1.5-2.1,2.1c-0.6,0.5-1.4,0.8-2.1,0.8
		c-0.5,0-1-0.2-1.4-0.5c-0.5-0.4-0.8-0.9-1-1.5c-0.6,1.2-1.8,2-3.2,2C79.6,26.7,78.7,26.3,78.1,25.6z M79.3,31.6
		c-0.4-0.3-0.5-0.8-0.5-1.3s0.2-1.1,0.7-1.4c0.5-0.4,1.1-0.6,1.7-0.6c0.5,0,1,0.1,1.4,0.4s0.6,0.7,0.6,1.2c0,0.6-0.2,1.1-0.6,1.5
		c-0.5,0.4-1,0.6-1.7,0.6C80.3,32.2,79.7,32,79.3,31.6L79.3,31.6z M81.4,13.3c-0.7-0.4-1.2-0.9-1.6-1.5s-0.5-1.2-0.6-1.9
		c0-0.4,0.1-0.7,0.4-1c0.3-0.2,0.6-0.4,1-0.4c0.6,0,1.1,0.4,1.2,1s0.5,1.1,0.9,1.6c0.4,0.4,0.9,0.6,1.5,0.6s1.1-0.2,1.5-0.6
		c0.4-0.5,0.8-1,1-1.6s0.7-0.9,1.3-0.9c0.3,0,0.6,0.1,0.8,0.3C89,9,89.1,9.3,89.1,9.6c0,0.7-0.2,1.4-0.6,1.9
		c-0.4,0.7-1.1,1.3-1.8,1.7c-0.8,0.5-1.8,0.7-2.7,0.7C83.1,13.9,82.2,13.7,81.4,13.3L81.4,13.3z M82.4,23.7c0.4-0.5,0.6-1.1,0.7-1.6
		l0.9-4.5c-0.7,0-1.3,0.3-1.9,0.8s-1.1,1.2-1.4,1.9c-0.3,0.8-0.5,1.7-0.5,2.5c0,0.4,0.1,0.8,0.3,1.1c0.2,0.2,0.5,0.4,0.8,0.4
		C81.8,24.3,82.2,24,82.4,23.7L82.4,23.7z"/>
	<path d="M89.8,25.4c-0.9-0.9-1.4-2.2-1.3-3.5c0-1.2,0.2-2.4,0.8-3.4c0.5-0.9,1.2-1.7,2-2.2s1.6-0.8,2.6-0.8c0.8,0,1.5,0.2,2.1,0.8
		c0.5,0.5,0.8,1.3,0.7,2c0,0.6-0.1,1.2-0.4,1.7c-0.2,0.4-0.7,0.7-1.2,0.7c-0.3,0-0.5-0.1-0.7-0.2s-0.3-0.4-0.3-0.6
		c0-0.1,0-0.3,0-0.4s0.1-0.2,0.1-0.3c0.1-0.2,0.1-0.4,0.1-0.7c0-0.2,0-0.3-0.2-0.5c-0.1-0.1-0.3-0.2-0.4-0.2c-0.4,0-0.7,0.2-1,0.5
		c-0.4,0.4-0.6,0.8-0.8,1.3c-0.2,0.6-0.3,1.2-0.3,1.9c0,1.9,0.8,2.8,2.4,2.8c0.7,0,1.5-0.3,2.1-0.7c0.9-0.5,1.6-1.2,2.2-2
		c0.2-0.2,0.4-0.3,0.6-0.3s0.4,0.1,0.5,0.3c0.1,0.2,0.2,0.5,0.2,0.8c0,0.5-0.1,1.1-0.4,1.5c-0.7,0.9-1.7,1.6-2.7,2.1
		c-0.9,0.5-2,0.7-3,0.8C92.1,26.8,90.7,26.3,89.8,25.4z"/>
	<path d="M104.6,25.6c-0.6-0.8-0.9-1.8-0.9-2.8c0-1.3,0.3-2.5,0.9-3.6s1.4-2.1,2.4-2.8c0.9-0.7,2-1,3.1-1c0.3,0,0.5,0,0.7,0.2
		s0.3,0.5,0.3,0.7c0.4-0.1,0.7-0.1,1.1-0.1c0.8,0,1.2,0.3,1.2,0.8c-0.1,0.8-0.2,1.6-0.4,2.4c-0.3,1.3-0.5,2.5-0.6,3.8
		c0,0.2,0.1,0.4,0.2,0.6c0.1,0.1,0.3,0.2,0.5,0.2c0.4-0.1,0.8-0.3,1.1-0.6c0.6-0.6,1.2-1.2,1.8-1.9c0.2-0.2,0.4-0.3,0.6-0.3
		s0.4,0.1,0.5,0.3c0.1,0.2,0.2,0.5,0.2,0.8c0,0.5-0.1,1.1-0.5,1.5c-0.6,0.8-1.3,1.5-2.1,2.1c-0.6,0.5-1.3,0.8-2.1,0.8
		c-0.5,0-1.1-0.2-1.5-0.5c-0.5-0.4-0.8-0.9-1-1.5c-0.6,1.2-1.8,2-3.2,2C106.1,26.8,105.2,26.4,104.6,25.6z M106.6,13.8
		c-0.2-0.1-0.3-0.3-0.3-0.5c0-0.3,0.2-0.7,0.5-0.9l2-2.3c0.6-0.7,1.6-1.1,2.5-1.1c0.4,0,0.8,0.1,1.2,0.3c0.3,0.3,0.6,0.6,0.8,1
		l0.9,1.9c0.1,0.2,0.2,0.5,0.2,0.8s-0.1,0.6-0.4,0.8s-0.6,0.3-0.9,0.3c-0.2,0-0.5,0-0.7-0.1s-0.3-0.2-0.4-0.4l-1.2-2.5l-1.9,2.5
		c-0.4,0.4-0.9,0.6-1.5,0.6C107.1,14,106.8,13.9,106.6,13.8L106.6,13.8z M108.9,23.7c0.4-0.5,0.6-1.1,0.7-1.6l0.9-4.4
		c-0.7,0-1.3,0.3-1.9,0.8s-1.1,1.2-1.4,1.9c-0.3,0.8-0.5,1.7-0.5,2.5c0,0.4,0.1,0.8,0.3,1.1c0.2,0.2,0.5,0.4,0.8,0.4
		C108.3,24.3,108.6,24,108.9,23.7L108.9,23.7z M113.6,9.1c-0.1-0.1-0.2-0.3-0.2-0.5c0-0.3,0.2-0.5,0.4-0.7l1.9-1.9
		c0.5-0.5,1.4-0.5,1.9,0.1c0.2,0.2,0.3,0.5,0.3,0.9c0,0.3-0.1,0.6-0.2,0.8c-0.2,0.3-0.5,0.5-0.8,0.6l-2.2,0.9
		c-0.1,0-0.3,0.1-0.4,0.1C113.9,9.4,113.7,9.3,113.6,9.1L113.6,9.1z"/>
	<path d="M115.7,25.8c-0.3-1-0.4-2-0.4-3.1c0-2,0.3-4,0.9-5.9c0.1-0.4,0.4-0.8,0.7-1c0.4-0.2,0.9-0.4,1.4-0.3c0.2,0,0.5,0,0.7,0.1
		c0.1,0.1,0.2,0.3,0.2,0.5c-0.1,0.6-0.2,1.2-0.4,1.7c-0.2,0.6-0.3,1.2-0.4,1.7c-0.1,0.6-0.2,1.2-0.2,1.8c0.4-1.1,0.9-2.2,1.5-3.2
		c0.5-0.7,1.1-1.4,1.8-1.9c0.5-0.4,1.1-0.6,1.8-0.6c0.4,0,0.9,0.1,1.2,0.4c0.3,0.3,0.4,0.8,0.3,1.2c-0.1,0.9-0.2,1.9-0.5,2.8
		c-0.1,0.6-0.2,1-0.3,1.3c0.6-1.6,1.5-3.1,2.7-4.3c0.7-0.8,1.7-1.3,2.7-1.3c0.8-0.1,1.5,0.4,1.6,1.2c0,0.1,0,0.3,0,0.4
		c-0.1,1.1-0.3,2.3-0.5,3.4c-0.2,0.9-0.4,1.8-0.5,2.8c0,0.6,0.2,1,0.7,1c0.4-0.1,0.8-0.3,1.1-0.6c0.6-0.6,1.2-1.2,1.8-1.9
		c0.2-0.2,0.4-0.3,0.6-0.3c0.2,0,0.4,0.1,0.5,0.3c0.1,0.2,0.2,0.5,0.2,0.8c0,0.5-0.1,1.1-0.4,1.5c-0.6,0.8-1.4,1.5-2.2,2.1
		c-0.8,0.5-1.7,0.8-2.7,0.8c-0.7,0.1-1.4-0.2-1.8-0.7c-0.5-0.6-0.7-1.3-0.6-2c0.1-0.8,0.2-1.6,0.3-2.4c0.2-0.7,0.3-1.4,0.3-2.1
		c0-0.2-0.1-0.4-0.3-0.4s-0.5,0.3-0.9,0.8c-0.5,0.7-0.8,1.4-1.2,2.1c-0.4,0.9-0.7,1.8-0.9,2.8c-0.1,0.6-0.3,1.1-0.6,1.5
		c-0.3,0.3-0.7,0.4-1.1,0.4c-0.5,0-1-0.3-1.2-0.8c-0.3-0.6-0.4-1.2-0.4-1.8c0-0.9,0.1-1.8,0.2-2.6c0.1-0.7,0.2-1.3,0.2-2
		c0-0.2-0.1-0.4-0.3-0.4s-0.6,0.3-0.9,0.9c-0.4,0.7-0.8,1.4-1.1,2.2c-0.3,0.8-0.6,1.7-0.8,2.6c-0.1,0.5-0.3,1.1-0.6,1.5
		c-0.3,0.3-0.7,0.4-1.1,0.4C116.4,26.8,115.9,26.3,115.7,25.8z"/>
</g>
</svg>
